<?xml version="1.0" encoding="UTF-8"?>
<svg version="1.1" xmlns="http://www.w3.org/2000/svg" width="225" height="225">
<path d="M0 0 C3.65847121 1.86374949 5.80253008 3.78326472 8.5625 6.8125 C10.76451116 9.29202485 10.76451116 9.29202485 13.5 8.9375 C15.98591326 8.04440386 15.98591326 8.04440386 18.25 6.9375 C23.11474607 5.27906384 27.97330439 5.17089725 32.75 7.125 C36.98747679 10.65623066 39.6248563 13.3922413 40.875 18.75 C41.57625 19.8225 42.2775 20.895 43 22 C46.10227928 22.64044668 49.14259383 22.97176797 52.29711914 23.23022461 C57.35720231 23.71234201 60.19704632 24.7414653 63.80078125 28.26953125 C66.87465064 32.70511477 67.15811528 36.30054018 66.74609375 41.6015625 C65.62365219 57.8073223 65.62365219 57.8073223 72.18359375 72.09375 C76.11848645 76.17626284 80.37395148 79.80900471 84.93115234 83.18017578 C87.98964751 85.87052544 89.73199838 88.61013111 90.50390625 92.61328125 C90.6416246 98.95750638 89.71678573 102.55858287 85.60546875 107.44140625 C84 109 84 109 81 111 C81.41504468 113.9744869 81.80311917 116.57149466 83.0625 119.3125 C84.88234065 124.52937652 84.81551714 129.23304621 82.5 134.25 C78.09960457 139.09043497 73.48233372 141.95155298 67 143 C67.04640625 143.7734375 67.0928125 144.546875 67.140625 145.34375 C67.37418402 152.08359588 67.28800347 157.54134527 63 163 C57.45256068 167.50729445 53.73915655 168.19011362 46.78515625 167.578125 C30.46004367 166.48905012 30.46004367 166.48905012 16.41796875 173.703125 C11.74418194 178.06240033 7.60995872 182.94335925 3.67871094 187.97460938 C1.69166442 190.37201163 0.74592371 190.90079466 -2.3203125 191.30859375 C-8.79717316 191.60627676 -12.39067399 190.85545981 -17.34375 186.60546875 C-18.45119275 185.53198061 -19.52741213 184.42535693 -20.5703125 183.2890625 C-21.04210937 182.86367187 -21.51390625 182.43828125 -22 182 C-24.74040484 182.21634775 -26.76891134 182.8908748 -29.25 184.0625 C-33.21616741 185.41460253 -36.85418311 185.59330595 -41 185 C-45.4034617 182.75672706 -48.24670519 180.08247161 -51 176 C-51.4021875 174.1746875 -51.4021875 174.1746875 -51.8125 172.3125 C-53.65959097 168.66884705 -53.65959097 168.66884705 -57.27734375 168.3203125 C-59.28299763 168.12704398 -61.28881839 167.93428211 -63.296875 167.76782227 C-68.31875172 167.28452758 -71.1805998 166.28677604 -74.80078125 162.828125 C-77.84254873 158.1911635 -78.24011126 153.44967145 -78.23828125 148.02734375 C-78.25439453 146.71572266 -78.27050781 145.40410156 -78.28710938 144.05273438 C-78.30358433 141.98992275 -78.31246708 139.9278626 -78.30541992 137.86499023 C-78.30279447 135.85651718 -78.33265878 133.84808506 -78.36328125 131.83984375 C-78.36626221 130.64738037 -78.36924316 129.45491699 -78.37231445 128.22631836 C-79.18030004 124.07325358 -80.82519704 122.70954759 -84 120 C-84.59570801 119.41476563 -85.19141602 118.82953125 -85.80517578 118.2265625 C-86.3464209 117.69804687 -86.88766602 117.16953125 -87.4453125 116.625 C-88.67195306 115.41674591 -89.89851424 114.20841123 -91.125 113 C-91.74503906 112.39671875 -92.36507812 111.7934375 -93.00390625 111.171875 C-98.27344131 105.9590016 -101.73376301 101.7208727 -102 94 C-100.57290255 89.09435253 -98.76872143 86.7177982 -95.125 83.1875 C-93.20117691 81.25544114 -93.20117691 81.25544114 -92 79 C-92.24625826 76.23295266 -93.04797071 74.09896347 -94.07421875 71.5234375 C-95.86605596 66.63935803 -95.85850034 61.93162576 -93.75 57.1875 C-89.94475439 52.43094299 -86.82451483 50.11800539 -81 48 C-80.01 48 -79.02 48 -78 48 C-78.04640625 47.2265625 -78.0928125 46.453125 -78.140625 45.65625 C-78.37394168 38.92339734 -78.29399538 33.449566 -74 28 C-68.66173368 23.75117578 -64.91015806 22.88779177 -58.20703125 23 C-56.84049466 23.00115916 -55.473954 22.99977424 -54.10742188 22.99609375 C-51.96442128 22.99169083 -49.82578481 22.9996801 -47.68334961 23.05126953 C-38.98382817 23.41256301 -38.98382817 23.41256301 -31.29833984 19.9296875 C-29.1179396 17.50397717 -29.1179396 17.50397717 -27.3894043 14.93359375 C-26.93090088 14.29550781 -26.47239746 13.65742188 -26 13 C-25.34 13 -24.68 13 -24 13 C-24 12.34 -24 11.68 -24 11 C-23.34 11 -22.68 11 -22 11 C-22 10.34 -22 9.68 -22 9 C-21.34 9 -20.68 9 -20 9 C-20 8.34 -20 7.68 -20 7 C-18.57421875 5.52734375 -18.57421875 5.52734375 -16.6875 3.9375 C-16.07261719 3.41027344 -15.45773438 2.88304687 -14.82421875 2.33984375 C-10.46925245 -0.85877176 -5.16382061 -0.58092982 0 0 Z " fill="#6154E2" transform="translate(118,17)"/>
<path d="M0 0 C2.7109375 2.046875 2.7109375 2.046875 5.375 4.75 C6.26960938 5.63171875 7.16421875 6.5134375 8.0859375 7.421875 C10 10 10 10 9.93731689 11.81620789 C8.57936228 14.98001577 6.31844291 17.12384104 3.91699219 19.51879883 C3.38843124 20.05743561 2.8598703 20.59607239 2.31529236 21.15103149 C0.56707618 22.92772772 -1.19222807 24.69290792 -2.953125 26.45703125 C-4.17305583 27.68660072 -5.39275896 28.91639613 -6.61224365 30.14640808 C-9.16926568 32.72138991 -11.7324113 35.29009665 -14.29931641 37.85522461 C-17.59122471 41.14682754 -20.86199004 44.45860648 -24.12782669 47.77605152 C-26.6397421 50.32127665 -29.16512818 52.85279569 -31.69454193 55.38062096 C-32.90665133 56.59627614 -34.11388584 57.81681193 -35.31613922 59.04221535 C-36.9967032 60.752092 -38.69511619 62.44199878 -40.39941406 64.12817383 C-40.89415726 64.63977554 -41.38890045 65.15137726 -41.89863586 65.67848206 C-44.19625404 67.91434972 -45.37770022 69.00651184 -48.65391541 68.972229 C-51.02628327 67.98910809 -52.35122275 67.13551291 -54.13793945 65.31616211 C-54.97824455 64.47540382 -54.97824455 64.47540382 -55.83552551 63.61766052 C-56.42218491 63.01035599 -57.0088443 62.40305145 -57.61328125 61.77734375 C-58.22769577 61.15726944 -58.84211029 60.53719513 -59.47514343 59.89833069 C-61.43053458 57.92059417 -63.37154064 55.92939183 -65.3125 53.9375 C-66.63774625 52.59218652 -67.96390809 51.2477743 -69.29101562 49.90429688 C-72.53805073 46.61321872 -75.77225596 43.30999568 -79 40 C-77.54609682 36.14194839 -76.09687607 33.64137895 -73.1875 30.6875 C-72.52105469 29.99011719 -71.85460937 29.29273437 -71.16796875 28.57421875 C-68.47036093 26.61541524 -67.27623934 26.61761826 -64 27 C-62.05541992 28.37695312 -62.05541992 28.37695312 -60.23046875 30.28125 C-59.56982422 30.95800781 -58.90917969 31.63476562 -58.22851562 32.33203125 C-57.55498047 33.04746094 -56.88144531 33.76289062 -56.1875 34.5 C-55.49462891 35.21542969 -54.80175781 35.93085937 -54.08789062 36.66796875 C-52.38014301 38.43460421 -50.68513312 40.21182487 -49 42 C-45.64228362 40.54643729 -43.49572881 38.71571796 -40.95336914 36.10107422 C-40.16897964 35.3003952 -39.38459015 34.49971619 -38.57643127 33.67477417 C-37.73781052 32.81014557 -36.89918976 31.94551697 -36.03515625 31.0546875 C-34.24847865 29.23785654 -32.46135565 27.4214635 -30.67382812 25.60546875 C-27.8596596 22.73541568 -25.04881524 19.86239322 -22.24731445 16.97998047 C-19.54181203 14.20212572 -16.8210333 11.44000456 -14.09765625 8.6796875 C-13.26105972 7.81101044 -12.4244632 6.94233337 -11.56251526 6.04733276 C-10.38120277 4.85577072 -10.38120277 4.85577072 -9.17602539 3.64013672 C-8.48859756 2.93557343 -7.80116974 2.23101013 -7.09291077 1.50509644 C-4.49196062 -0.36535159 -3.13968707 -0.46335741 0 0 Z " fill="#FCFCFD" transform="translate(147,80)"/>
<path d="M0 0 C2.61022123 3.48029497 3.97867725 6.0165738 5.55859375 9.98046875 C6.02716797 11.14513672 6.49574219 12.30980469 6.97851562 13.50976562 C7.45998047 14.72341797 7.94144531 15.93707031 8.4375 17.1875 C9.3931865 19.57736111 10.35019204 21.96669522 11.30859375 24.35546875 C11.76411621 25.49508057 12.21963867 26.63469238 12.68896484 27.80883789 C14.11403192 31.27756262 15.64817035 34.67919324 17.27172852 38.05908203 C18.63322165 41.68760045 18.68677236 45.21559816 18 49 C15.49621529 54.42486687 11.37593287 57.59900507 6 60 C3.03 60.495 3.03 60.495 0 61 C0 40.87 0 20.74 0 0 Z " fill="#8A89F8" transform="translate(184,99)"/>
<path d="M0 0 C0 20.13 0 40.26 0 61 C-2.52242347 58.47757653 -3.3333985 56.08590589 -4.6796875 52.77734375 C-4.93372345 52.1578334 -5.1877594 51.53832306 -5.44949341 50.90003967 C-6.26274309 48.91442746 -7.06914613 46.92612386 -7.875 44.9375 C-8.6729038 42.97947018 -9.4722529 41.02204104 -10.2726593 39.06503296 C-10.79183437 37.79523149 -11.30973917 36.52490988 -11.82633972 35.25405884 C-13.5307798 31.07875609 -15.34052117 26.97023773 -17.29760742 22.9074707 C-19.01194792 18.25187728 -18.73923872 13.66328712 -16.75 9.1875 C-12.1407244 3.4259055 -7.70701079 0 0 0 Z " fill="#8B8AFB" transform="translate(41,65)"/>
<path d="M0 0 C4.2905619 3.57546825 7.67966779 7.45021599 9.25 12.875 C9.25 14.195 9.25 15.515 9.25 16.875 C-10.88 16.875 -31.01 16.875 -51.75 16.875 C-48.69709739 14.58532305 -46.92324991 13.37602847 -43.546875 12.078125 C-42.73903564 11.76230469 -41.93119629 11.44648437 -41.09887695 11.12109375 C-40.24124756 10.79238281 -39.38361816 10.46367188 -38.5 10.125 C-32.61299124 7.83973863 -26.80673588 5.48495036 -21.08422852 2.81298828 C-13.84984573 -0.54342986 -7.86064815 -3.2157197 0 0 Z " fill="#8C8AFB" transform="translate(150.75,24.125)"/>
<path d="M0 0 C20.13 0 40.26 0 61 0 C57.51970503 2.61022123 54.9834262 3.97867725 51.01953125 5.55859375 C49.85486328 6.02716797 48.69019531 6.49574219 47.49023438 6.97851562 C46.27658203 7.45998047 45.06292969 7.94144531 43.8125 8.4375 C41.42263889 9.3931865 39.03330478 10.35019204 36.64453125 11.30859375 C34.93511353 11.99187744 34.93511353 11.99187744 33.19116211 12.68896484 C29.72243738 14.11403192 26.32080676 15.64817035 22.94091797 17.27172852 C19.32138247 18.62985108 15.77448285 18.70504491 12 18 C6.72498697 15.31272921 3.33934344 11.74565406 0.75 6.4375 C0 4 0 4 0 0 Z " fill="#8C8BF9" transform="translate(65,184)"/>
<path d="M0 0 C0.33 0 0.66 0 1 0 C0.93079346 0.83958252 0.86158691 1.67916504 0.7902832 2.54418945 C-0.82888015 20.87852066 -0.82888015 20.87852066 6.19140625 37.11328125 C10.12457361 41.18622704 14.380393 44.8137698 18.93115234 48.18017578 C21.98964751 50.87052544 23.73199838 53.61013111 24.50390625 57.61328125 C24.63870228 63.82288513 23.8104307 67.44901961 19.80078125 72.24609375 C17.6573286 74.33375153 15.34460942 76.14354119 13 78 C-0.92548073 52.24013978 -1.60186932 28.84502195 0 0 Z " fill="#433E92" transform="translate(184,52)"/>
<path d="M0 0 C2.21309231 1.96160454 4.02583286 3.84549553 5.921875 6.08984375 C6.45393555 6.71753662 6.98599609 7.34522949 7.53417969 7.99194336 C7.93540039 8.46897705 8.33662109 8.94601074 8.75 9.4375 C4.91766904 11.04406866 1.08395726 12.6473167 -2.75 14.25 C-3.82765625 14.70181641 -4.9053125 15.15363281 -6.015625 15.61914062 C-7.07265625 16.06064453 -8.1296875 16.50214844 -9.21875 16.95703125 C-10.18232422 17.36026611 -11.14589844 17.76350098 -12.13867188 18.17895508 C-13.16541016 18.5942749 -14.19214844 19.00959473 -15.25 19.4375 C-15.83837646 19.70539841 -16.42675293 19.97329681 -17.03295898 20.24931335 C-22.69061337 22.66754907 -27.77669363 22.83059846 -33.875 22.73046875 C-34.86250244 22.72622391 -35.85000488 22.72197906 -36.86743164 22.71760559 C-39.99524177 22.70092646 -43.1223874 22.66329435 -46.25 22.625 C-48.38150106 22.60993925 -50.5130123 22.59625329 -52.64453125 22.58398438 C-57.84657764 22.5510584 -63.04824133 22.50096767 -68.25 22.4375 C-68.25 22.1075 -68.25 21.7775 -68.25 21.4375 C-67.3528125 21.45433838 -66.455625 21.47117676 -65.53125 21.48852539 C-62.16743549 21.53000838 -58.80853928 21.53067595 -55.44482422 21.50463867 C-53.99587572 21.50157638 -52.54679756 21.51428106 -51.09814453 21.54370117 C-42.30492662 21.88199616 -42.30492662 21.88199616 -34.53515625 18.36279297 C-32.35618185 15.93818814 -32.35618185 15.93818814 -30.6328125 13.36889648 C-29.94832031 12.41285522 -29.94832031 12.41285522 -29.25 11.4375 C-28.59 11.4375 -27.93 11.4375 -27.25 11.4375 C-27.25 10.7775 -27.25 10.1175 -27.25 9.4375 C-26.59 9.4375 -25.93 9.4375 -25.25 9.4375 C-25.25 8.7775 -25.25 8.1175 -25.25 7.4375 C-24.59 7.4375 -23.93 7.4375 -23.25 7.4375 C-23.25 6.7775 -23.25 6.1175 -23.25 5.4375 C-21.82421875 3.96484375 -21.82421875 3.96484375 -19.9375 2.375 C-19.32261719 1.84777344 -18.70773438 1.32054687 -18.07421875 0.77734375 C-12.92841356 -3.00212345 -5.52429727 -2.65591215 0 0 Z " fill="#454096" transform="translate(121.25,18.5625)"/>
<path d="M0 0 C0 0.33 0 0.66 0 1 C-1.19822388 0.88047974 -1.19822388 0.88047974 -2.4206543 0.75854492 C-19.62390354 -0.93435995 -19.62390354 -0.93435995 -35.05647278 5.35383606 C-40.37790461 10.02617787 -44.96656217 15.40138646 -49.32128906 20.97460938 C-51.30833558 23.37201163 -52.25407629 23.90079466 -55.3203125 24.30859375 C-61.6822771 24.60099602 -65.32785759 23.91170434 -70.24609375 19.80078125 C-72.33375153 17.6573286 -74.14354119 15.34460942 -76 13 C-50.73003662 -0.46702802 -28.26728407 -1.65140038 0 0 Z " fill="#443F93" transform="translate(171,184)"/>
<path d="M0 0 C1.78720187 2.6808028 2.90102716 4.99688658 4.09375 7.96484375 C4.48433594 8.92970703 4.87492187 9.89457031 5.27734375 10.88867188 C5.88255859 12.3978418 5.88255859 12.3978418 6.5 13.9375 C7.30065824 15.92635554 8.10268964 17.91465898 8.90625 19.90234375 C9.26009766 20.78398193 9.61394531 21.66562012 9.97851562 22.57397461 C10.94063427 24.97343874 10.94063427 24.97343874 12.11865234 27.0480957 C13.13681475 29.3030011 13.23051147 30.8641973 13.1953125 33.328125 C13.18886719 34.12734375 13.18242188 34.9265625 13.17578125 35.75 C13.15902344 36.575 13.14226563 37.4 13.125 38.25 C13.11597656 39.09046875 13.10695313 39.9309375 13.09765625 40.796875 C13.07415817 42.86470604 13.03828908 44.93238995 13 47 C8.16196468 43.06206428 3.68228449 38.8204478 -0.75 34.4375 C-1.31678467 33.88360596 -1.88356934 33.32971191 -2.4675293 32.7590332 C-7.53768143 27.70094389 -10.74358836 23.43593743 -11 16 C-9.0723119 9.37357217 -4.81836501 4.81836501 0 0 Z " fill="#443F94" transform="translate(27,95)"/>
<path d="M0 0 C2.475 0.495 2.475 0.495 5 1 C1.49364791 5.88384755 1.49364791 5.88384755 -1.125 6.5 C-1.74375 6.665 -2.3625 6.83 -3 7 C-4.25290395 9.44316271 -5 11.24525395 -5 14 C-2.36 14 0.28 14 3 14 C3 14.66 3 15.32 3 16 C0.16987873 16.94337376 -1.54299918 17.12172829 -4.47143555 17.11352539 C-5.82249641 17.11341209 -5.82249641 17.11341209 -7.20085144 17.11329651 C-8.16968765 17.10813522 -9.13852386 17.10297394 -10.13671875 17.09765625 C-11.62858452 17.09553383 -11.62858452 17.09553383 -13.15058899 17.09336853 C-16.32958982 17.08776761 -19.50852043 17.07521496 -22.6875 17.0625 C-24.84179586 17.05748512 -26.99609282 17.05292219 -29.15039062 17.04882812 C-34.43361774 17.03779788 -39.71680385 17.02105886 -45 17 C-45 16.67 -45 16.34 -45 16 C-44.1028125 16.01683838 -43.205625 16.03367676 -42.28125 16.05102539 C-38.91743549 16.09250838 -35.55853928 16.09317595 -32.19482422 16.06713867 C-30.74587572 16.06407638 -29.29679756 16.07678106 -27.84814453 16.10620117 C-19.05492662 16.44449616 -19.05492662 16.44449616 -11.28515625 12.92529297 C-9.10618185 10.50068814 -9.10618185 10.50068814 -7.3828125 7.93139648 C-6.92648438 7.29403564 -6.47015625 6.6566748 -6 6 C-5.34 6 -4.68 6 -4 6 C-4 5.34 -4 4.68 -4 4 C-3.34 4 -2.68 4 -2 4 C-2 3.34 -2 2.68 -2 2 C-1.34 2 -0.68 2 0 2 C0 1.34 0 0.68 0 0 Z " fill="#3F3A87" transform="translate(98,24)"/>
<path d="M0 0 C0.33 0 0.66 0 1 0 C1 30.69 1 61.38 1 93 C2.485 92.505 2.485 92.505 4 92 C4 93.32 4 94.64 4 96 C4.99 95.505 4.99 95.505 6 95 C5.67 97.31 5.34 99.62 5 102 C4.01 102 3.02 102 2 102 C-0.80115184 96.44114652 -1.42145227 92.15418656 -1.328125 85.9765625 C-1.32585907 84.65773071 -1.32585907 84.65773071 -1.32354736 83.31225586 C-1.31414788 80.41620431 -1.28249996 77.52087716 -1.25 74.625 C-1.23801462 72.60205601 -1.22696268 70.5791063 -1.21679688 68.55615234 C-1.07214008 45.70104918 -0.5566239 22.84822682 0 0 Z " fill="#5A52D3" transform="translate(41,77)"/>
<path d="M0 0 C20.13 0 40.26 0 61 0 C57.58796036 2.27469309 56.5085148 2.22491044 52.51879883 2.13525391 C51.39786331 2.11508209 50.2769278 2.09491028 49.12202454 2.0741272 C47.30785286 2.02583267 47.30785286 2.02583267 45.45703125 1.9765625 C43.59893074 1.93902359 43.59893074 1.93902359 41.70329285 1.90072632 C38.41348317 1.83242487 35.12403859 1.75523935 31.83453369 1.67376709 C28.47643627 1.59277703 25.11810051 1.52344059 21.75976562 1.453125 C15.17290411 1.31283701 8.58639007 1.16083573 2 1 C2.33 1.66 2.66 2.32 3 3 C3.039992 4.99960012 3.04346799 7.00047242 3 9 C1 6 1 6 0 0 Z " fill="#817CF1" transform="translate(65,184)"/>
<path d="M0 0 C1.79244141 0.01740234 1.79244141 0.01740234 3.62109375 0.03515625 C5.41740234 0.04869141 5.41740234 0.04869141 7.25 0.0625 C8.17683594 0.07410156 9.10367188 0.08570313 10.05859375 0.09765625 C10.05859375 0.75765625 10.05859375 1.41765625 10.05859375 2.09765625 C7.22847248 3.04103001 5.51559457 3.21938454 2.5871582 3.21118164 C1.23609734 3.21106834 1.23609734 3.21106834 -0.14225769 3.21095276 C-1.1110939 3.20579147 -2.07993011 3.20063019 -3.078125 3.1953125 C-4.56999077 3.19319008 -4.56999077 3.19319008 -6.09199524 3.19102478 C-9.27099607 3.18542386 -12.44992668 3.17287121 -15.62890625 3.16015625 C-17.78320211 3.15514137 -19.93749907 3.15057844 -22.09179688 3.14648438 C-27.37502399 3.13545413 -32.6582101 3.11871511 -37.94140625 3.09765625 C-37.94140625 2.76765625 -37.94140625 2.43765625 -37.94140625 2.09765625 C-36.40432007 2.06007202 -36.40432007 2.06007202 -34.83618164 2.02172852 C-31.04730949 1.92781141 -27.25862744 1.82755308 -23.4699707 1.7253418 C-21.82776322 1.68193328 -20.18550886 1.64026267 -18.54321289 1.6003418 C-16.1875188 1.54278185 -13.83206197 1.47904733 -11.4765625 1.4140625 C-10.73801529 1.39735001 -9.99946808 1.38063751 -9.23854065 1.36341858 C-5.72314023 1.26040309 -3.27832066 0.10884199 0 0 Z " fill="#3D3697" transform="translate(90.94140625,37.90234375)"/>
<path d="M0 0 C0.33 0 0.66 0 1 0 C1.33 9.24 1.66 18.48 2 28 C2.99 27.67 3.98 27.34 5 27 C5 28.32 5 29.64 5 31 C5.66 30.67 6.32 30.34 7 30 C6.67 32.31 6.34 34.62 6 37 C5.01 37 4.02 37 3 37 C0.56423695 31.99081255 -0.36594164 28.42146715 -0.29296875 22.75390625 C-0.28872391 22.09792953 -0.28447906 21.44195282 -0.28010559 20.76609802 C-0.26348779 18.69779089 -0.22587238 16.63050599 -0.1875 14.5625 C-0.17243111 13.14910275 -0.15874659 11.73569002 -0.14648438 10.32226562 C-0.11364104 6.88118565 -0.06198015 3.44069281 0 0 Z " fill="#4941AE" transform="translate(40,142)"/>
<path d="M0 0 C0.75 1.6875 0.75 1.6875 1 4 C-0.9375 6.75 -0.9375 6.75 -3 9 C-2.34 9.33 -1.68 9.66 -1 10 C-2.32 10.99 -3.64 11.98 -5 13 C-5.66 12.67 -6.32 12.34 -7 12 C-7.33 13.65 -7.66 15.3 -8 17 C-9.875 17.625 -9.875 17.625 -12 18 C-12.66 17.34 -13.32 16.68 -14 16 C-12.60974609 14.64455078 -12.60974609 14.64455078 -11.19140625 13.26171875 C-9.9815084 12.07057901 -8.77188732 10.87915809 -7.5625 9.6875 C-6.95083984 9.09259766 -6.33917969 8.49769531 -5.70898438 7.88476562 C-5.12568359 7.30791016 -4.54238281 6.73105469 -3.94140625 6.13671875 C-3.40201416 5.60780029 -2.86262207 5.07888184 -2.30688477 4.53393555 C-0.76440675 2.91744147 -0.76440675 2.91744147 0 0 Z " fill="#665AD3" transform="translate(157,90)"/>
<path d="M0 0 C0.495 0.99 0.495 0.99 1 2 C1.66 2.33 2.32 2.66 3 3 C-1.60476876 6.52368448 -5.47518419 6.39674112 -11.01953125 6.29296875 C-11.87810226 6.28872391 -12.73667328 6.28447906 -13.6212616 6.28010559 C-16.35199914 6.26336995 -19.08198712 6.22572766 -21.8125 6.1875 C-23.6686091 6.17244653 -25.52472982 6.15875928 -27.38085938 6.14648438 C-31.92085985 6.11348323 -36.46030302 6.06173659 -41 6 C-41 5.67 -41 5.34 -41 5 C-39.89487061 4.97494385 -38.78974121 4.9498877 -37.65112305 4.92407227 C-33.55285956 4.82993491 -29.45476306 4.72972959 -25.35668945 4.62768555 C-23.58264063 4.58436066 -21.80855077 4.54268381 -20.03442383 4.50268555 C-17.48506295 4.4449238 -14.9359082 4.38124638 -12.38671875 4.31640625 C-11.59287277 4.29969376 -10.79902679 4.28298126 -9.98112488 4.26576233 C-6.75316923 4.17882282 -4.08248901 4.02749634 -1 3 C-0.67 2.01 -0.34 1.02 0 0 Z " fill="#6258CF" transform="translate(177,178)"/>
<path d="M0 0 C0 2.33333333 0 4.66666667 0 7 C-0.804375 7.28875 -1.60875 7.5775 -2.4375 7.875 C-5.1326468 8.73262568 -5.1326468 8.73262568 -6 11 C-6.763125 11.45375 -7.52625 11.9075 -8.3125 12.375 C-10.98394547 13.99029261 -12.88209504 15.72521319 -15 18 C-15.66 17.67 -16.32 17.34 -17 17 C-11.39 11.39 -5.78 5.78 0 0 Z " fill="#685DCF" transform="translate(134,115)"/>
<path d="M0 0 C3.875 0.875 3.875 0.875 5 2 C7.05396726 1.59070014 7.05396726 1.59070014 9 1 C8.67 2.98 8.34 4.96 8 7 C8.99 6.67 9.98 6.34 11 6 C11.66 6.66 12.32 7.32 13 8 C11.02 8.99 11.02 8.99 9 10 C7.49702124 8.52386015 5.99768715 7.04400843 4.5 5.5625 C3.6646875 4.73878906 2.829375 3.91507812 1.96875 3.06640625 C0 1 0 1 0 0 Z " fill="#6055CB" transform="translate(89,113)"/>
<path d="M0 0 C0.33 0 0.66 0 1 0 C0.98839844 0.92941406 0.97679687 1.85882813 0.96484375 2.81640625 C0.88246463 11.95709317 0.88246463 11.95709317 2 21 C-1.70037315 15.44944027 -2.80582026 10.62431652 -2 4 C-0.984375 1.72265625 -0.984375 1.72265625 0 0 Z " fill="#7B79CF" transform="translate(25,73)"/>
<path d="M0 0 C1.73662334 3.22515763 2.8905928 6.51329166 4 10 C3.34 10.66 2.68 11.32 2 12 C1.34 11.67 0.68 11.34 0 11 C-0.33 11.66 -0.66 12.32 -1 13 C-2.0070238 7.96488101 -1.97387813 4.76052962 0 0 Z " fill="#3C377F" transform="translate(18,105)"/>
<path d="M0 0 C2.46800047 1.15173355 4.04783565 2.04783565 6 4 C8.58354218 4.16687448 8.58354218 4.16687448 11 4 C10.67 4.99 10.34 5.98 10 7 C6.70985003 7.22432841 4.57722754 7.30380397 1.625 5.75 C0 4 0 4 0 0 Z " fill="#655BD1" transform="translate(91,144)"/>
<path d="M0 0 C1.16959987 0.97566112 2.33561177 1.955625 3.5 2.9375 C4.1496875 3.48277344 4.799375 4.02804688 5.46875 4.58984375 C6.22671875 5.28787109 6.22671875 5.28787109 7 6 C7 6.33 7 6.66 7 7 C4.125 7.125 4.125 7.125 1 7 C0.34 6.34 -0.32 5.68 -1 5 C-0.67 4.34 -0.34 3.68 0 3 C-0.99 2.67 -1.98 2.34 -3 2 C-2.01 1.34 -1.02 0.68 0 0 Z " fill="#3C3984" transform="translate(123,21)"/>
<path d="M0 0 C0.76183594 -0.01417969 1.52367187 -0.02835938 2.30859375 -0.04296875 C4.79597315 0.21137334 6.41058106 0.94732804 8.5625 2.1875 C5.85370665 3.54189668 3.55316732 3.25251451 0.5625 3.1875 C0.5625 2.5275 0.5625 1.8675 0.5625 1.1875 C-0.4275 1.8475 -1.4175 2.5075 -2.4375 3.1875 C-4.76949388 3.26655064 -7.10582622 3.27548769 -9.4375 3.1875 C-6.51756501 0.26756501 -3.9610504 0.0333984 0 0 Z " fill="#7974CB" transform="translate(143.4375,22.8125)"/>
<path d="M0 0 C0.90105469 0.00902344 1.80210938 0.01804687 2.73046875 0.02734375 C3.41753906 0.03894531 4.10460937 0.05054687 4.8125 0.0625 C1.66658067 2.86295623 -0.254564 3.41511589 -4.4375 3.25 C-5.32953125 3.22292969 -6.2215625 3.19585938 -7.140625 3.16796875 C-7.81609375 3.13316406 -8.4915625 3.09835938 -9.1875 3.0625 C-7.31499103 -0.68251794 -3.72136574 -0.04832943 0 0 Z " fill="#403A80" transform="translate(113.1875,16.9375)"/>
<path d="M0 0 C0.33 1.32 0.66 2.64 1 4 C-1.97 6.475 -1.97 6.475 -5 9 C-5.66 8.67 -6.32 8.34 -7 8 C-4.69 5.36 -2.38 2.72 0 0 Z " fill="#39357B" transform="translate(26,96)"/>
<path d="M0 0 C2.0625 2.1875 2.0625 2.1875 4 5 C3.75 7.8125 3.75 7.8125 3 10 C0.70366176 6.55549263 0.45983515 4.06187717 0 0 Z " fill="#3C3981" transform="translate(204,102)"/>
<path d="M0 0 C1.32 0.66 2.64 1.32 4 2 C0.535 4.97 0.535 4.97 -3 8 C-3 6.68 -3 5.36 -3 4 C-2.34 3.67 -1.68 3.34 -1 3 C-0.67 2.01 -0.34 1.02 0 0 Z " fill="#5F52CE" transform="translate(139,78)"/>
<path d="M0 0 C2.02054804 1.64169528 4.02043058 3.30911778 6 5 C6 5.33 6 5.66 6 6 C4.35 6 2.7 6 1 6 C0.4465236 3.92446352 0 2.15634036 0 0 Z " fill="#6A5FD8" transform="translate(69,121)"/>
<path d="M0 0 C2.475 0.99 2.475 0.99 5 2 C3.35 3.65 1.7 5.3 0 7 C-0.93423645 3.98968256 -1.04449911 3.13349732 0 0 Z " fill="#6156CF" transform="translate(109,106)"/>
<path d="M0 0 C0.66 0 1.32 0 2 0 C1.34 1.98 0.68 3.96 0 6 C-1.65 6 -3.3 6 -5 6 C-3.625 4 -3.625 4 -2 2 C-1.34 2 -0.68 2 0 2 C0 1.34 0 0.68 0 0 Z " fill="#362F7E" transform="translate(94,28)"/>
<path d="M0 0 C0.66 0.99 1.32 1.98 2 3 C1.0479279 4.00596297 0.08812654 5.00461563 -0.875 6 C-1.40867187 6.556875 -1.94234375 7.11375 -2.4921875 7.6875 C-4 9 -4 9 -6 9 C-4.84334866 5.53004599 -3.81924446 5.11443335 -1 3 C-0.67 2.01 -0.34 1.02 0 0 Z " fill="#413F84" transform="translate(124,198)"/>
<path d="M0 0 C0.99 0.99 1.98 1.98 3 3 C2.01 3.495 2.01 3.495 1 4 C1 4.99 1 5.98 1 7 C-0.32 5.35 -1.64 3.7 -3 2 C-2.01 1.34 -1.02 0.68 0 0 Z " fill="#5C50CF" transform="translate(155,83)"/>
<path d="M0 0 C-0.33 0.99 -0.66 1.98 -1 3 C-4.0625 4.1875 -4.0625 4.1875 -7 5 C-7.66 4.34 -8.32 3.68 -9 3 C-2.25 0 -2.25 0 0 0 Z " fill="#7776CF" transform="translate(39,65)"/>
<path d="M0 0 C2.6855594 2.6855594 3.06049974 5.37621328 4 9 C3.01 8.67 2.02 8.34 1 8 C-0.35439668 5.29120665 -0.06501451 2.99066732 0 0 Z " fill="#7876CB" transform="translate(156,30)"/>
</svg>
